<?xml version="1.0" encoding="utf-8"?>
<!-- Generator: Adobe Illustrator 21.1.0, SVG Export Plug-In . SVG Version: 6.00 Build 0)  -->
<svg version="1.1" id="Слой_1" xmlns="http://www.w3.org/2000/svg" xmlns:xlink="http://www.w3.org/1999/xlink" x="0px" y="0px"
	 viewBox="0 0 100 100" style="enable-background:new 0 0 100 100;" xml:space="preserve">
<style type="text/css">
	.st0{fill:#EB5346;}
</style>
<path class="st0" d="M96.4,36l-2.3,5.2c0,0-10.9,3.6-25.7,4.2c0,0-0.8,0.6-2,1s-16.3,0-16.3,0s-15,0.4-16.3,0s-2-1-2-1
	c-14.9-0.7-25.7-4.2-25.7-4.2L3.6,36l-0.9,5.3c0,0,0.3,8.8,0.9,10.6c0.6,1.8,1.9,1.6,2,2.4c0.1,0.9,0.9,4.2,4.9,6
	c3.2,1.4,27.2,3,36.1,3.6c2.2,0.1,4.5,0.1,6.7,0c8.9-0.5,32.9-2.1,36.1-3.6c4-1.8,4.7-5.1,4.9-6c0.1-0.9,1.4-0.7,2-2.4
	c0.6-1.8,0.9-10.6,0.9-10.6L96.4,36z M92.4,49c0,0.5-0.4,0.9-0.8,0.9L69,53.9c-0.1,0-0.1,0-0.2,0L32.4,54c-0.1,0-0.1,0-0.2,0
	L9.2,49.2c-0.5-0.1-0.8-0.5-0.8-1l0-0.1c0-0.6,0.6-1.1,1.2-0.9L32,51.6c0.1,0,0.1,0,0.2,0l36.3,0c0.1,0,0.1,0,0.2,0l22.7-3.7
	c0.6-0.1,1.1,0.4,1.1,1L92.4,49z"/>
</svg>
