<?xml version="1.0" encoding="utf-8"?>
<!-- Generator: Adobe Illustrator 21.1.0, SVG Export Plug-In . SVG Version: 6.00 Build 0)  -->
<svg version="1.1" id="Слой_1" xmlns="http://www.w3.org/2000/svg" xmlns:xlink="http://www.w3.org/1999/xlink" x="0px" y="0px"
	 viewBox="0 0 100 100" style="enable-background:new 0 0 100 100;" xml:space="preserve">
<style type="text/css">
	.st0{fill:#EB5346;}
</style>
<path class="st0" d="M92.9,40.8c-1.4-2.2-3.2-4.2-5.3-5.8c-6.1-4.5-13.9-6-21.3-6.8c-5.5-0.6-11.1-0.6-16.7-0.5
	c-4.6,0.1-9.7,0.4-13.2,3.7c-0.4,0.3-0.7,0.7-1,1c-2.5,3.1-2.6,6.4-3.2,10.1c-0.3,1.8-0.4,4.3-1.3,5.9c-0.6,1-3,3.5-6.2,3.2
	s-5-2.3-5.6-3.2c-0.4-0.7-4.2-13.6-6.1-20.1c-0.2-0.5-1-0.4-0.9,0.2c0.2,4.3,0.3,10.6-0.2,10.6h-0.2c-0.3,0-0.5,0.2-0.5,0.5v3.6
	c0,0.3-0.2,0.5-0.5,0.5H4c-0.3,0-0.5,0.2-0.5,0.5v2c0,0.3,0.2,0.5,0.5,0.5c1.7,0,7.6-0.1,7.4,0c-0.2,0.1-0.8,5.9,0.3,9.3
	c0.8,2.2,1.4,4,1.8,4.8c0.1,0.3-0.1,0.7-0.4,0.7H7.3c-1.5,0-2.6,1.2-2.6,2.7l0.1,4.1c0.1,1.5,1.3,2.7,2.8,2.6l10.1-0.5
	c0.1,0,0.3,0,0.3,0.1c1.5,1.3,3.3,2,5.3,2h15.8c1.9,0,3.7-0.5,5.4-1.3c0.1,0,0.2-0.1,0.2-0.1c7.6,0.3,15.3,0.6,22.9,0.1
	c5.8-0.4,11.6-0.9,17.1-2.8c3.9-1.4,7.5-3.8,9.5-7.5C97.9,54.5,96.7,46.7,92.9,40.8z M89.7,62c-2.3,2.3-5.5,3.2-8.6,3.7
	c-6.6,1.1-13.3,1-20,1.1c-3.8,0.1-7.6,0.1-11.4-0.1c-2.4-0.1-4.7-0.3-7.1-0.4c-1.2,0-2.5-0.3-3.4-1.2c-0.5-0.5-0.7-1.2-1-1.8
	c-1.1-3.2-1.6-6.5-1.8-9.8c-0.4-4.7,0-9.5,1.2-14.1c0.4-1.6,1.3-3.3,2.1-4.7c0.6-1.1,1.4-1.9,2.4-2.5c3.4-2,8.2-1.7,12-1.7
	c5.6-0.1,11.2,0.1,16.7,1.1c5,0.9,10.4,2.4,14.6,5.4c6.7,4.8,10.2,14.8,6.2,22.4c-0.4,0.8-0.9,1.5-1.5,2.2
	C90,61.8,89.8,61.9,89.7,62z"/>
</svg>
