<?xml version="1.0" encoding="utf-8"?>
<!-- Generator: Adobe Illustrator 21.1.0, SVG Export Plug-In . SVG Version: 6.00 Build 0)  -->
<svg version="1.1" id="Слой_1" xmlns="http://www.w3.org/2000/svg" xmlns:xlink="http://www.w3.org/1999/xlink" x="0px" y="0px"
	 viewBox="0 0 100 100" style="enable-background:new 0 0 100 100;" xml:space="preserve">
<style type="text/css">
	.st0{fill:#EB5346;}
</style>
<path class="st0" d="M96.6,52.9c-1.5,0-5.3-2.2-5.3-2.2s-3.2-7.1-3.8-8.2c-0.6-1.1,6.4-1.7,5.1-2.5c-1.3-0.8-56.8-11.2-62.6-12
	c-5.8-0.7-17-2.7-17-2.7L3,26.6c4.7,10.8,1.1,44.5,1.1,44.5l0.8,3l6.2,0.5l0.5,0c0-0.5,0-0.9,0-1.4c0-16.3,15-29.5,33.5-29.5
	c18.4,0,33.4,13.1,33.5,29.3l0,0c0,0,0.8,0.3,6.5,0c5.8-0.3,9.4-2,9.4-2S98.2,52.9,96.6,52.9z M14.3,37.7H6.7v-2.4h7.6V37.7z"/>
</svg>
