<?xml version="1.0" encoding="utf-8"?>
<!-- Generator: Adobe Illustrator 21.1.0, SVG Export Plug-In . SVG Version: 6.00 Build 0)  -->
<svg version="1.1" id="Слой_1" xmlns="http://www.w3.org/2000/svg" xmlns:xlink="http://www.w3.org/1999/xlink" x="0px" y="0px"
	 viewBox="0 0 100 100" style="enable-background:new 0 0 100 100;" xml:space="preserve">
<style type="text/css">
	.st0{fill:#EB5346;}
</style>
<path class="st0" d="M96.4,36l-2.3,5.2c0,0-10.9,3.6-25.7,4.2c0,0-0.8,0.6-2,1c-1.3,0.4-16.3,0-16.3,0s-15,0.4-16.3,0
	c-1.3-0.4-2-1-2-1c-14.9-0.7-25.7-4.2-25.7-4.2L3.6,36l-0.9,5.3c0,0,0.3,8.8,0.9,10.6s1.9,1.6,2,2.4c0.1,0.9,0.9,4.2,4.9,6
	c3.2,1.4,27.2,3,36.1,3.6c2.2,0.1,4.5,0.1,6.7,0c8.9-0.5,32.9-2.1,36.1-3.6c4-1.8,4.7-5.1,4.9-6s1.4-0.7,2-2.4
	c0.6-1.8,0.9-10.6,0.9-10.6L96.4,36z M24,60.4l-9.9-1c-0.2,0-0.3-0.1-0.4-0.2l-2.1-2.3c-0.4-0.4,0-1.1,0.6-1l10.6,1.6
	c0.2,0,0.3,0.1,0.4,0.2l1.4,1.7C25,59.9,24.6,60.4,24,60.4z M44.6,58.8v1l-14-0.8l-1.3-0.8C29.8,58.1,44.6,58.8,44.6,58.8z
	 M44.9,61.6l-14-0.8l-1.3-0.8c0.4,0,15.2,0.7,15.2,0.7V61.6z M69.1,60.8l-14,0.8v-1c0,0,14.9-0.7,15.2-0.7L69.1,60.8z M69.3,58.9
	l-14,0.8v-1c0,0,14.9-0.7,15.2-0.7L69.3,58.9z M88.4,56.9l-2.1,2.3c-0.1,0.1-0.3,0.2-0.4,0.2l-9.9,1c-0.6,0.1-1-0.5-0.6-0.9l1.4-1.7
	c0.1-0.1,0.3-0.2,0.4-0.2l10.6-1.6C88.4,55.8,88.8,56.5,88.4,56.9z"/>
</svg>
