<?xml version="1.0" encoding="utf-8"?>
<!-- Generator: Adobe Illustrator 21.1.0, SVG Export Plug-In . SVG Version: 6.00 Build 0)  -->
<svg version="1.1" id="Слой_1" xmlns="http://www.w3.org/2000/svg" xmlns:xlink="http://www.w3.org/1999/xlink" x="0px" y="0px"
	 viewBox="0 0 100 100" style="enable-background:new 0 0 100 100;" xml:space="preserve">
<style type="text/css">
	.st0{fill:#EB5346;}
</style>
<g>
	<g>
		<g>
			<path class="st0" d="M90.8,41.1H97c0-2.8-2.3-5.1-5.1-5.1h-1.1V41.1z"/>
			<path class="st0" d="M8.8,36H8.4c-2.8,0-5.1,2.3-5.1,5.1v0h5.5V36z"/>
			<rect x="9.3" y="36" class="st0" width="81" height="5.1"/>
		</g>
		<rect x="15.4" y="41.1" class="st0" width="2.2" height="1.1"/>
		<rect x="83.5" y="41.1" class="st0" width="2.2" height="1.1"/>
	</g>
	<g>
		<g>
			<path class="st0" d="M9.2,58.9H3C3,61.7,5.3,64,8.1,64h1.1V58.9z"/>
			<path class="st0" d="M91.2,64h0.4c2.8,0,5.1-2.3,5.1-5.1v0h-5.5V64z"/>
			<rect x="9.6" y="58.9" class="st0" width="81" height="5.1"/>
		</g>
		
			<rect x="82.4" y="57.8" transform="matrix(-1 -1.224647e-16 1.224647e-16 -1 167.0253 116.6523)" class="st0" width="2.2" height="1.1"/>
		
			<rect x="14.4" y="57.8" transform="matrix(-1 -1.224647e-16 1.224647e-16 -1 30.9109 116.6523)" class="st0" width="2.2" height="1.1"/>
	</g>
</g>
</svg>
