<?xml version="1.0" encoding="utf-8"?>
<!-- Generator: Adobe Illustrator 21.1.0, SVG Export Plug-In . SVG Version: 6.00 Build 0)  -->
<svg version="1.1" id="Слой_1" xmlns="http://www.w3.org/2000/svg" xmlns:xlink="http://www.w3.org/1999/xlink" x="0px" y="0px"
	 viewBox="0 0 100 100" style="enable-background:new 0 0 100 100;" xml:space="preserve">
<style type="text/css">
	.st0{fill:#EB5346;}
</style>
<g>
	<path class="st0" d="M3.1,46.9c1.6-0.4,3.2-0.7,4.8-1.1c4.1-1,8.3-1.9,12.4-2.9c5.7-1.3,11.4-2.6,17.1-4c6.2-1.4,12.5-2.9,18.7-4.3
		c5.8-1.3,11.6-2.7,17.4-4c3.6-0.8,7.3-1.6,10.9-2.5c2.5-0.6,5-1.4,7.5-1.8c2.3-0.4,4.1-0.4,4.6,2.3c1.2,7.6-1.7,15.9-3.6,23.3
		c-0.5,2.1-1.1,4.2-1.7,6.3C90.8,60,90.4,62,89,63.4c-1.5,1.6-3.5,1.6-5.6,2c-1.7,0.3-3.5,0.7-5.2,1c-3.9,0.7-7.9,1.4-11.9,2
		c-7.9,1.3-15.8,2.4-23.8,3.6c-4.8,0.7-9.7,1.2-14.5,2c16.2-2.9,32.5-5.9,48.7-8.8c3.2-0.6,6.7-1.3,8.7-3.9c0.8-1,1.2-2.1,1.7-3.3
		c2.9-7.5,5.7-15.1,7.1-23c0.3-1.7,0.5-3.7-0.4-5.1c-1.4-2.2-4.4-2.1-6.7-1.5c-6.9,1.9-13.9,3.2-20.9,4.8
		c-5.1,1.1-10.3,2.3-15.4,3.4c-5.3,1.2-10.6,2.3-16,3.5c-4.8,1.1-9.7,2.1-14.5,3.2c-3.7,0.8-7.4,1.6-11.1,2.4
		c-1.9,0.4-3.8,0.8-5.7,1.2C3.4,46.8,3.2,46.9,3.1,46.9z"/>
	<path class="st0" d="M69.7,33.4l17-3.7c1.2-0.3,2.2,0.8,2,1.9c-1.1,6.2-4.3,22.5-7.7,26.5c-4.3,4.9-5.4,4.4-9.7,5.6
		c-4.1,1.1-37.2,5.7-39.2,5.9c-0.1,0-0.1,0-0.2,0c-0.6,0-4.1,0-5.7-1c0,0,0,0-0.1,0c-1.2-0.8-0.9-2.6,0.4-3
		c8.2-2.6,33.2-10.7,34.5-11.3c1.4-0.7,6.8-14.1,7.3-19.4C68.5,34.2,69,33.6,69.7,33.4z"/>
	<polygon class="st0" points="63.5,36.4 14.6,47.2 63.5,38.5 	"/>
	<polygon class="st0" points="62.5,41.8 13.6,52.6 62.5,43.9 	"/>
	<polygon class="st0" points="61.1,47.2 24.3,55.4 61.1,48.8 	"/>
</g>
</svg>
