<?xml version="1.0" encoding="utf-8"?>
<!-- Generator: Adobe Illustrator 21.1.0, SVG Export Plug-In . SVG Version: 6.00 Build 0)  -->
<svg version="1.1" id="Слой_1" xmlns="http://www.w3.org/2000/svg" xmlns:xlink="http://www.w3.org/1999/xlink" x="0px" y="0px"
	 viewBox="0 0 100 100" style="enable-background:new 0 0 100 100;" xml:space="preserve">
<style type="text/css">
	.st0{fill-rule:evenodd;clip-rule:evenodd;fill:#EB5346;}
</style>
<g>
	<path class="st0" d="M19.1,56.9V44.1l1.1-0.9c-2.9,0.3-5.8,0.7-8.7,1.1c-1.4,0.2-2.9,0.4-4.2,1c-0.1,0-0.1,0.1-0.2,0.1
		c-2,1-3.3,3-3.2,5c0.1,2,1.4,3.5,3.1,4.6c1.7,1.1,3.8,1.6,5.8,2c2.2,0.5,4.5,0.8,6.8,0.9c0.2,0,0.4,0,0.6,0L19.1,56.9z"/>
	<path class="st0" d="M96.1,48.4c-0.1-1.7-1.5-3.3-3.2-4.2c-1.7-0.9-3.7-1.3-5.7-1.6c-2.9-0.4-5.8-0.4-8.8-0.2
		c-0.9,0.1-1.9,0.2-2.7,0.7c-0.3,0.2-0.6,0.6-1,0.8c-0.4,0.2-0.8,0.2-1.2,0.2c-4.4,0.2-8.8,0.3-13.2,0.5c-5.3,0.2-10.5,0.4-15.8,0.3
		c-2.8-0.1-5.7-0.3-8.1-1.5c-0.9-0.4-1.8-1-2.8-1.2c-1.6-0.3-3.4,0-5,0.2c-1.9,0.2-3.8,0.3-5.7,0.5c-0.5,0.1-1,0.1-1.5,0.2l-1.3,1
		v12.8l1.3,1.1c4,0.2,8,0,12-0.2c0.7,0,1.5-0.1,2.1-0.4c0.7-0.3,1.2-1,1.8-1.4c1.6-1.3,4-1.4,6.2-1.5C53.7,54,63.9,54,74,54
		c0.5,0,1.4-0.1,1.8,0.2c0.3,0.2,0.3,0.6,0.5,0.9c0.4,0.6,1.4,0.6,2.2,0.5c2.1-0.2,4.3-0.4,6.4-0.6c2.5-0.2,5-0.5,7.2-1.5
		C94.4,52.5,96.3,50.5,96.1,48.4z M28.6,53.2c-1.6,0-2.9-1.1-2.9-2.5s1.3-2.5,2.9-2.5s2.9,1.1,2.9,2.5S30.2,53.2,28.6,53.2z"/>
</g>
</svg>
