<?xml version="1.0" encoding="utf-8"?>
<!-- Generator: Adobe Illustrator 21.1.0, SVG Export Plug-In . SVG Version: 6.00 Build 0)  -->
<svg version="1.1" id="Слой_1" xmlns="http://www.w3.org/2000/svg" xmlns:xlink="http://www.w3.org/1999/xlink" x="0px" y="0px"
	 viewBox="0 0 100 100" style="enable-background:new 0 0 100 100;" xml:space="preserve">
<style type="text/css">
	.st0{fill:#EB5346;}
</style>
<path class="st0" d="M94,41.1c-0.6-2.7,2.1-19.3,2.9-24.3c0.1-0.7-0.5-1.4-1.2-1.4c-7.2,0.1-39.2,0.4-46.6,2
	c-7.7,1.7-15.3,7-22.1,11.1c-6.7,4-17.3,8.7-20.2,17.1c-0.7,2-1.3,4.1-1.8,6.2C3.4,58.2,2.5,65,2,71.3c-0.3,3.1,0,7.6,0.5,12.2
	c0.1,0.6,0.6,1.1,1.2,1.1l89.6-1.1c0.6,0,1.1-0.4,1.2-1c1.6-9.5,2.9-24,3-28.4C97.7,48.6,94.6,44.2,94,41.1z M31,53.4
	c0,1.2-0.9,2.2-2,2.1c-3.8-0.4-11.7-1.5-13-4.2c-0.8-1.6-1.4-3.2-2-4.8c0-0.1-0.1-0.2,0-0.2c0-0.1,0.1-0.1,0.1-0.2
	c1.6-1.6,3.9-2.4,5.9-3c2.9-1,5.8-2.3,8.8-2.8c0.9-0.2,1.7,0.4,2,1.3c0.1,0.2,0.1,0.5,0.1,0.7L31,53.4z M91.6,57
	c0,1-0.7,1.8-1.6,1.8l-20.5,0.2c-0.9,0-1.6-0.8-1.6-1.8l0-0.3c0-1,0.7-1.8,1.6-1.8L90,55c0.9,0,1.6,0.8,1.6,1.8L91.6,57z M88,44.3
	l-54,0.7c-0.6,0-1.2-0.5-1.2-1.1l-0.5-5.2c-0.1-0.8-0.7-1.3-1.4-1.2c-2,0.4-7.5,2.1-11.9,3.6c-1.3,0.4-2.2-1.3-1.1-2.1
	C25,33.5,38,24.7,49.2,22.3c14.4-3.1,35.3-2.3,40.7-2c0.7,0,1.2,0.6,1.1,1.3l-1.9,21.7C89.1,43.8,88.6,44.3,88,44.3z"/>
</svg>
