<?xml version="1.0" encoding="utf-8"?>
<!-- Generator: Adobe Illustrator 21.1.0, SVG Export Plug-In . SVG Version: 6.00 Build 0)  -->
<svg version="1.1" id="Слой_1" xmlns="http://www.w3.org/2000/svg" xmlns:xlink="http://www.w3.org/1999/xlink" x="0px" y="0px"
	 viewBox="0 0 100 100" style="enable-background:new 0 0 100 100;" xml:space="preserve">
<style type="text/css">
	.st0{fill:#EB5346;}
</style>
<g>
	<path class="st0" d="M53.2,34.1c-2.8-0.1-3.1,4-3.1,4L50,40l10.7,3.6C60.8,43.6,56,34.2,53.2,34.1z"/>
	<circle class="st0" cx="27.8" cy="46.7" r="2.7"/>
	<path class="st0" d="M24.6,45.4c0.4-1.2,1.6-1.9,2.8-1.7l0-0.1l-2.2-0.8c-1.4-0.5-3,0.2-3.5,1.6s0.2,3,1.6,3.5l2.2,0.8l0-0.1
		C24.6,47.9,24.2,46.6,24.6,45.4z"/>
	<path class="st0" d="M51.3,52.4c0.3-0.9,1.3-1.5,2.2-1.3l0-0.1l-1.7-0.7c-1.1-0.4-2.3,0.1-2.7,1.2v0c-0.4,1.1,0.1,2.3,1.2,2.7
		l1.7,0.7l0-0.1C51.3,54.3,51,53.3,51.3,52.4z"/>
	<circle class="st0" cx="53.7" cy="53.4" r="2"/>
	<path class="st0" d="M94.9,61.4c-0.7-0.6-6.9-3.9-14.2-7.6v-0.4h-0.5v0.1c-7.8-4-16.5-8.2-20.8-9.9c-8.4-3.2-37.9-9.9-41.2-10.2
		c-5.1-0.6-10.3-2-15.3-3.2c-0.1,0-0.3-0.1-0.4,0c-0.8,0.2-0.3,3-0.3,3.6c0.1,2.1,1.3,4.5,2,6.5c1.2,3.2,2.5,6.5,3.8,9.7
		c0.5,1.3,1.1,2.6,1.6,3.9c0.1,0.2,0.8,1.5,0.7,1.7c-0.4,0.5-0.7,1-1.1,1.5c-0.3,0.5-0.8,1-1.1,1.4c-0.2,0.2-0.4,0.5-0.4,0.8
		c0,0.5,1,1,1.3,1.3c0.8,0.6,1.7,1.6,2.6,1.9c1,0.3,2.4,0.5,3.5,0.4c2.8,0,4.9,0.9,7.2,2.4c5.3,3.4,21.1,3.4,21.1,3.4l17.2,0.9
		l0.8-0.4l1.7,0.4l19.6-0.5c0,0,3-0.3,4.5-0.7c1.4-0.4,2.8-0.1,4.2,0c0.2-0.2,0.3-0.4,0.5-0.6c-0.1,0.1,1.5,0.5,1.6,0.5
		c0.6,0.1,1.2,0,1.8-0.3c1-0.4,2.4-1.4,2.6-2.5C98.3,64.2,96.3,62.6,94.9,61.4z M68,55.8v7.8c-0.3-0.3-0.6-0.7-0.8-1.1v-5.7
		C67.4,56.4,67.7,56.1,68,55.8z M68.4,55.3c0.2-0.2,0.5-0.4,0.8-0.6v9.9c-0.3-0.2-0.5-0.4-0.8-0.6V55.3z M69.7,54.5
		c0.2-0.1,0.5-0.2,0.8-0.3v11.1c-0.3-0.1-0.5-0.2-0.8-0.3V54.5z M70.9,54c0.2-0.1,0.5-0.1,0.8-0.2v11.7c-0.3,0-0.5-0.1-0.8-0.2V54z
		 M74.6,54.2c0.3,0.1,0.5,0.2,0.8,0.3v10.3c-0.2,0.1-0.5,0.2-0.8,0.3V54.2z M74.1,65.3c-0.2,0.1-0.5,0.1-0.8,0.2V53.9
		c0.3,0,0.5,0.1,0.8,0.2V65.3z M75.8,54.8c0.3,0.2,0.5,0.4,0.8,0.6v8.5c-0.2,0.2-0.5,0.4-0.8,0.6V54.8z M77,55.9
		c0.3,0.3,0.6,0.7,0.8,1.1v5.3c-0.2,0.4-0.5,0.8-0.8,1.1V55.9z M27.9,61c-6.6,0-11.9-5.1-11.9-11.3c0-6.2,5.3-11.3,11.9-11.3
		c4.8,0,8.9,2.7,10.8,6.5c-0.3,1-0.4,2-0.4,2.9c-0.1,1.8,0.3,3.6,1,5.1C37.8,57.6,33.3,61,27.9,61z M54.3,65.5
		c-5.8,0.1-10.5-4.6-10.4-10.4c0.1-5.4,4.5-9.9,10-10c4.3-0.1,8.1,2.5,9.6,6.3c0,0,0,0,0,0c-1.6,1.2-2.2,3.3-2,5.3
		c0.1,0.9,0.3,1.9,0.7,2.8c0.2,0.4,0.4,0.7,0.7,1C61.1,63.5,57.9,65.4,54.3,65.5z M66.8,57.9v3.6c-0.2-0.6-0.3-1.2-0.3-1.8
		S66.6,58.4,66.8,57.9z M72.1,65.5V53.8c0.1,0,0.2,0,0.3,0c0.1,0,0.3,0,0.4,0v11.7c-0.1,0-0.3,0-0.4,0
		C72.3,65.6,72.2,65.5,72.1,65.5z M78.3,61.1v-2.9c0.1,0.5,0.2,1,0.2,1.5S78.4,60.7,78.3,61.1z"/>
</g>
</svg>
