<?xml version="1.0" encoding="utf-8"?>
<!-- Generator: Adobe Illustrator 21.1.0, SVG Export Plug-In . SVG Version: 6.00 Build 0)  -->
<svg version="1.1" id="Слой_1" xmlns="http://www.w3.org/2000/svg" xmlns:xlink="http://www.w3.org/1999/xlink" x="0px" y="0px"
	 viewBox="0 0 100 100" style="enable-background:new 0 0 100 100;" xml:space="preserve">
<style type="text/css">
	.st0{fill:none;stroke:#EB5346;stroke-width:4;stroke-miterlimit:10;}
	.st1{fill:#EB5346;}
</style>
<g>
	<path class="st0" d="M96.2,15C85.5,21.9,68.8,26.3,50,26.3S14.5,21.9,3.8,15l0,42.8c0,5.3,2.3,10.3,6.4,13.6c3,2.5,6.1,5.1,9,7.5
		c4.4,3.7,9.9,5.8,15.7,6.1l-0.1-1.3c-1-8.8,0,0,0,0c0.1,0.5,0.1,1,0.1,1.3c0.4,0,0.8,0,1.2,0c8,0,19.3,0,27.4,0
		c1.1,0,2.2-0.1,3.3-0.2c0-0.1,0-0.3,0-0.4c0,0,1-8.8,0,0l0,0.4c5.3-0.6,10.3-2.8,14.5-6.2c2.3-1.9,4.7-3.9,7.1-5.9
		c5-4.2,7.9-10.3,7.9-16.9C96.2,40.9,96.2,15,96.2,15z"/>
	<g>
		<path class="st1" d="M32.3,55.1l2.4,28.6c0.1,0.5,0.1,1,0.1,1.3c0.4,0,0.8,0,1.2,0c8,0,19.3,0,27.4,0c1.1,0,2.2-0.1,3.3-0.2
			c0-0.1,0-0.3,0-0.4l2.4-29.2H32.3z"/>
		<path class="st1" d="M3.8,55.1v2.6c0,5.3,2.3,10.3,6.4,13.6c3,2.5,6.1,5.1,9,7.5c4.4,3.7,9.9,5.8,15.7,6.1l-0.1-1.3
			c-0.5-4.7-2.2-17.6-3.7-28.6H3.8z"/>
		<path class="st1" d="M70.5,55.1c-1.5,11.1-3.2,24.4-3.7,29.2l0,0.4c5.3-0.6,10.3-2.8,14.5-6.2c2.3-1.9,4.7-3.9,7.1-5.9
			c5-4.2,7.9-10.3,7.9-16.9c0-0.2,0-0.4,0-0.7H70.5z"/>
	</g>
</g>
</svg>
