<?xml version="1.0" encoding="utf-8"?>
<!-- Generator: Adobe Illustrator 21.1.0, SVG Export Plug-In . SVG Version: 6.00 Build 0)  -->
<svg version="1.1" id="Слой_1" xmlns="http://www.w3.org/2000/svg" xmlns:xlink="http://www.w3.org/1999/xlink" x="0px" y="0px"
	 viewBox="0 0 100 100" style="enable-background:new 0 0 100 100;" xml:space="preserve">
<style type="text/css">
	.st0{fill:#EB5346;}
</style>
<g>
	<g>
		<path class="st0" d="M12.3,30.1C15,30.5,24,32,29,32.7c1.8,0.2,9,1.5,19,3.4v2.8c-1-0.1-2.1-0.1-3.1-0.1
			c-15.8,0-29.4,8.4-35.5,20.6c0.5-8.9,0.7-20.4-0.8-28.7L12.3,30.1 M12.4,25l-10,1.3c4.8,11,1.1,45.1,1.1,45.1l0.8,3.1l6.3,0.5
			l0.5,0c0-0.5,0-0.9,0-1.4C11,57.1,26.2,43.7,45,43.7c2.8,0,5.5,0.3,8.1,0.9V31.9C41.8,29.8,32,28,29.7,27.7
			C23.8,27,12.4,25,12.4,25L12.4,25z"/>
	</g>
	<g>
		<rect x="6.1" y="35.2" class="st0" width="7.7" height="2.4"/>
	</g>
	<path class="st0" d="M97.2,52.9c-1.6,0-5.4-2.3-5.4-2.3s-3.2-7.2-3.9-8.3c-0.6-1.1,6.5-1.7,5.1-2.5c-0.8-0.5-22.2-4.6-40-8v12.7
		c14.7,3.2,25.7,14.9,25.8,28.8l0,0c0,0,0.8,0.3,6.6,0c5.9-0.3,9.6-2,9.6-2S98.8,52.9,97.2,52.9z"/>
</g>
</svg>
